<?xml version="1.0" standalone="no"?><!DOCTYPE svg PUBLIC "-//W3C//DTD SVG 1.1//EN" "http://www.w3.org/Graphics/SVG/1.1/DTD/svg11.dtd"><svg t="1642127992752" class="icon" viewBox="0 0 1024 1024" version="1.1" xmlns="http://www.w3.org/2000/svg" p-id="8333" xmlns:xlink="http://www.w3.org/1999/xlink" width="200" height="200"><defs><style type="text/css"></style></defs><path d="M511.959421 183.003116A383.93336 383.93336 0 1 1 128.026061 566.936476a383.93336 383.93336 0 0 1 383.93336-383.93336m0-73.130164a457.063524 457.063524 0 1 0 457.063524 457.063524A457.063524 457.063524 0 0 0 511.959421 109.872952z" p-id="8334"></path><path d="M530.241962 255.036327h-36.565082a18.282541 18.282541 0 0 0-18.282541 18.282541v303.307355a18.282541 18.282541 0 0 1-5.301937 12.980604l-149.916836 149.916836a18.282541 18.282541 0 0 0 0 25.961208l25.778383 25.778383a18.282541 18.282541 0 0 0 25.778383 0l165.456996-164.542869A35.468129 35.468129 0 0 0 548.524503 594.360287V273.318868a18.282541 18.282541 0 0 0-18.282541-18.282541zM965.914913 275.695599a36.565082 36.565082 0 0 1-25.961208-62.526291 36.565082 36.565082 0 0 0 0-51.556765l-77.517974-77.700799a36.565082 36.565082 0 0 0-51.739591 0 36.565082 36.565082 0 1 1-51.739591-51.739591 109.695246 109.695246 0 0 1 155.218773 0L991.693296 109.872952a109.695246 109.695246 0 0 1 0 155.035947 36.565082 36.565082 0 0 1-25.778383 10.7867zM58.003929 275.695599a36.565082 36.565082 0 0 1-25.778383-10.7867 109.695246 109.695246 0 0 1 0-155.035947L109.74352 32.172153a109.695246 109.695246 0 0 1 155.218773 0 36.565082 36.565082 0 0 1-51.739591 51.739591 36.565082 36.565082 0 0 0-51.739591 0L83.965137 161.612543a36.565082 36.565082 0 0 0 0 51.556765 36.565082 36.565082 0 0 1-25.961208 62.526291z" p-id="8335"></path></svg>